<svg viewBox="0 0 100 100" xmlns="http://www.w3.org/2000/svg">
  <defs>
    <linearGradient id="bookGradient" x1="0%" y1="100%" x2="100%" y2="0%">
      <stop offset="0%" style="stop-color:#3B82F6;stop-opacity:1" />
      <stop offset="50%" style="stop-color:#8B5CF6;stop-opacity:1" />
      <stop offset="100%" style="stop-color:#EC4899;stop-opacity:1" />
    </linearGradient>
  </defs>

  <!-- Left page -->
  <path d="M15 25 L15 75 Q15 80 20 80 L48 80 L48 25 Q48 20 43 20 L20 20 Q15 20 15 25 Z"
        fill="none" stroke="url(#bookGradient)" stroke-width="3" stroke-linecap="round"/>

  <!-- Right page -->
  <path d="M85 25 L85 75 Q85 80 80 80 L52 80 L52 25 Q52 20 57 20 L80 20 Q85 20 85 25 Z"
        fill="none" stroke="url(#bookGradient)" stroke-width="3" stroke-linecap="round"/>

  <!-- Spine -->
  <path d="M48 80 Q50 82 52 80" fill="none" stroke="url(#bookGradient)" stroke-width="3"/>
  <path d="M48 25 Q50 23 52 25" fill="none" stroke="url(#bookGradient)" stroke-width="3"/>

  <!-- Left page lines -->
  <line x1="22" y1="35" x2="42" y2="35" stroke="url(#bookGradient)" stroke-width="2.5" stroke-linecap="round"/>
  <line x1="22" y1="47" x2="42" y2="47" stroke="url(#bookGradient)" stroke-width="2.5" stroke-linecap="round"/>
  <line x1="22" y1="59" x2="42" y2="59" stroke="url(#bookGradient)" stroke-width="2.5" stroke-linecap="round"/>

  <!-- Right page lines -->
  <line x1="58" y1="35" x2="78" y2="35" stroke="url(#bookGradient)" stroke-width="2.5" stroke-linecap="round"/>
  <line x1="58" y1="47" x2="78" y2="47" stroke="url(#bookGradient)" stroke-width="2.5" stroke-linecap="round"/>
  <line x1="58" y1="59" x2="78" y2="59" stroke="url(#bookGradient)" stroke-width="2.5" stroke-linecap="round"/>
</svg>
